<svg width="877" height="693" viewBox="0 0 877 693" fill="none" xmlns="http://www.w3.org/2000/svg">
<rect x="0.943359" width="876.057" height="573.686" rx="10" fill="url(#paint0_linear_225_454)"/>
<path d="M438.355 693C579.733 693 694.343 627.892 694.343 547.578C694.343 467.264 579.733 402.156 438.355 402.156C296.976 402.156 182.366 467.264 182.366 547.578C182.366 627.892 296.976 693 438.355 693Z" fill="#F5F5F5"/>
<path d="M544.881 639.269L353.795 528.936C352.114 527.967 350.718 526.573 349.747 524.893C348.777 523.214 348.266 521.308 348.266 519.368C348.266 517.428 348.777 515.522 349.747 513.843C350.718 512.163 352.114 510.769 353.795 509.8L372.645 497.913C375.899 496.039 379.588 495.053 383.344 495.053C387.099 495.053 390.788 496.039 394.042 497.913L585.153 608.259C586.834 609.228 588.23 610.622 589.201 612.302C590.172 613.981 590.683 615.887 590.683 617.827C590.683 619.767 590.172 621.673 589.201 623.353C588.23 625.032 586.834 626.427 585.153 627.395L566.303 639.269C563.048 641.153 559.353 642.145 555.592 642.145C551.831 642.145 548.136 641.153 544.881 639.269Z" fill="#E0E0E0"/>
<path d="M254.336 538.679C277.237 538.679 295.803 528.018 295.803 514.866C295.803 501.715 277.237 491.054 254.336 491.054C231.434 491.054 212.868 501.715 212.868 514.866C212.868 528.018 231.434 538.679 254.336 538.679Z" fill="#E6E6E6"/>
<path d="M612.643 544.136L630.83 554.593C630.83 554.593 621.542 525.402 626.491 495.978C628.362 484.857 632.376 479.336 633.779 476.361C635.182 473.386 646.056 455.004 636.377 446.586C626.699 438.167 604.185 455.095 605.407 500.395C605.962 515.222 608.393 529.919 612.643 544.136Z" fill="#A6F2E8"/>
<path opacity="0.5" d="M612.643 544.136L630.83 554.593C630.83 554.593 621.542 525.402 626.491 495.978C628.362 484.857 632.376 479.336 633.779 476.361C635.182 473.386 646.056 455.004 636.377 446.586C626.699 438.167 604.185 455.095 605.407 500.395C605.962 515.222 608.393 529.919 612.643 544.136Z" fill="black"/>
<path d="M621.1 549.644C620.967 549.647 620.837 549.608 620.728 549.534C620.618 549.459 620.535 549.352 620.489 549.228C620.424 549.033 613.474 530.04 613.695 499.511C613.915 468.982 629.959 452.406 630.115 452.25C630.176 452.189 630.248 452.141 630.327 452.108C630.406 452.075 630.491 452.058 630.576 452.058C630.662 452.058 630.747 452.075 630.826 452.108C630.905 452.141 630.977 452.189 631.038 452.25C631.099 452.31 631.147 452.382 631.18 452.461C631.213 452.54 631.23 452.625 631.23 452.711C631.23 452.797 631.213 452.882 631.18 452.961C631.147 453.04 631.099 453.112 631.038 453.172C630.882 453.328 615.215 469.411 614.994 499.524C614.773 529.638 621.632 548.605 621.71 548.786C621.769 548.948 621.76 549.127 621.687 549.283C621.614 549.439 621.482 549.559 621.32 549.618C621.249 549.64 621.174 549.649 621.1 549.644Z" fill="white"/>
<path d="M620.23 548.604L645.095 562.895C647.686 564.426 650.759 564.925 653.701 564.292C656.643 563.658 659.239 561.94 660.97 559.478C662.616 556.917 663.31 553.859 662.932 550.839C661.737 537.926 656.125 534.951 662.997 529.196C669.869 523.441 671.662 523.038 671.272 517.504C670.883 511.97 667.102 509.553 665.309 507.371C663.517 505.188 658.554 500.615 661.932 493.86C665.309 487.105 669.921 480.57 662.932 477.582C658.762 475.79 651.812 478.18 647.239 483.142C642.666 488.105 638.899 491.678 634.521 492.873C630.143 494.068 621.023 494.263 621.413 501.811C621.802 509.358 623.803 511.944 622.01 515.308C618.632 521.596 603.94 525.169 620.23 548.604Z" fill="#A6F2E8"/>
<path d="M632.518 556.295C632.356 556.29 632.202 556.227 632.082 556.117C631.963 556.008 631.887 555.859 631.869 555.698C631.869 555.256 628.049 510.671 658.708 480.999C658.835 480.895 658.996 480.842 659.16 480.852C659.323 480.861 659.477 480.932 659.591 481.051C659.704 481.169 659.769 481.326 659.771 481.49C659.774 481.654 659.714 481.813 659.605 481.934C629.387 511.177 633.129 555.139 633.168 555.581C633.182 555.751 633.129 555.92 633.02 556.052C632.91 556.183 632.753 556.266 632.583 556.282L632.518 556.295Z" fill="white"/>
<path d="M637.443 517.92C637.279 517.92 637.121 517.859 637.001 517.748C636.881 517.637 636.806 517.485 636.793 517.322C636.521 513.867 635.548 510.503 633.933 507.437C632.318 504.37 630.096 501.665 627.401 499.485C627.331 499.436 627.271 499.374 627.225 499.301C627.179 499.229 627.148 499.148 627.133 499.063C627.119 498.979 627.121 498.892 627.14 498.808C627.16 498.725 627.195 498.646 627.245 498.576C627.293 498.506 627.354 498.447 627.426 498.401C627.497 498.355 627.577 498.324 627.66 498.31C627.744 498.295 627.829 498.297 627.912 498.316C627.995 498.335 628.073 498.371 628.141 498.42C631.013 500.698 633.381 503.547 635.094 506.787C636.807 510.028 637.828 513.588 638.092 517.244C638.107 517.418 638.052 517.59 637.94 517.724C637.829 517.858 637.668 517.942 637.495 517.959L637.443 517.92Z" fill="white"/>
<path d="M635.325 525.571C635.168 525.573 635.015 525.517 634.896 525.415C634.767 525.3 634.688 525.14 634.676 524.967C634.664 524.795 634.719 524.625 634.831 524.493C635.143 524.129 642.82 515.659 660.813 517.907C660.984 517.929 661.138 518.019 661.243 518.155C661.347 518.291 661.394 518.464 661.372 518.634C661.349 518.805 661.26 518.961 661.124 519.068C660.988 519.175 660.816 519.224 660.644 519.206C643.366 517.036 635.87 525.272 635.792 525.35C635.733 525.417 635.661 525.47 635.581 525.508C635.501 525.546 635.413 525.568 635.325 525.571Z" fill="white"/>
<path d="M539.061 626.083L371.009 529.053C359.148 522.207 349.535 503.838 349.535 488.027V128.175C349.535 112.365 359.148 105.103 371.009 111.949L539.061 208.979C550.922 215.826 560.535 234.195 560.535 250.005V609.858C560.535 625.655 550.922 632.93 539.061 626.083Z" fill="#455A64"/>
<path d="M558.418 197.664L390.353 100.634C385.286 97.7107 380.635 97.3729 376.959 99.1657C376.509 99.3911 376.075 99.6472 375.66 99.9322L356.823 110.884C360.616 108.61 365.579 108.779 371.022 111.923L539.074 208.953C550.935 215.799 560.549 234.169 560.549 249.979V609.831C560.549 618.198 557.859 624.121 553.572 626.928L572.163 616.106C576.904 613.586 579.957 607.415 579.957 598.568V238.716C579.957 222.88 570.279 204.51 558.418 197.664Z" fill="#37474F"/>
<path d="M560.536 249.979V609.831C560.536 618.198 557.847 624.122 553.56 626.928L572.163 616.106C576.905 613.586 579.957 607.415 579.957 598.568V238.716L560.601 249.953L560.536 249.979Z" fill="#263238"/>
<path d="M579.892 266.633L560.535 277.806V286.536L579.892 275.35V266.633Z" fill="#37474F"/>
<path d="M571.41 324.691C569.682 325.691 568.279 324.626 568.279 322.326V303.554C568.296 302.381 568.589 301.228 569.132 300.188C569.676 299.148 570.456 298.249 571.41 297.565C573.137 296.565 574.54 297.565 574.54 299.93V318.702C574.523 319.875 574.231 321.028 573.687 322.068C573.143 323.108 572.363 324.006 571.41 324.691Z" fill="#37474F"/>
<path d="M568.265 322.378V303.554C568.283 302.381 568.575 301.228 569.119 300.188C569.662 299.148 570.442 298.249 571.396 297.565C571.681 297.366 572.013 297.244 572.359 297.213C572.705 297.181 573.054 297.24 573.371 297.383L571.019 296.175C570.698 296.021 570.341 295.953 569.985 295.981C569.629 296.008 569.287 296.129 568.993 296.331C568.038 297.015 567.257 297.913 566.711 298.953C566.165 299.993 565.87 301.146 565.849 302.32V321.079C565.8 321.553 565.872 322.032 566.058 322.47C566.245 322.908 566.539 323.293 566.914 323.586L569.369 324.886C568.979 324.604 568.67 324.223 568.476 323.782C568.282 323.341 568.209 322.857 568.265 322.378Z" fill="#455A64"/>
<path d="M571.41 370.12C569.682 371.121 568.279 370.12 568.279 367.756V348.984C568.297 347.811 568.59 346.658 569.134 345.618C569.677 344.578 570.457 343.68 571.41 342.995C573.137 341.995 574.54 342.995 574.54 345.372V364.131C574.525 365.305 574.234 366.459 573.69 367.499C573.146 368.54 572.365 369.438 571.41 370.12Z" fill="#37474F"/>
<path d="M568.265 367.756V348.984C568.284 347.81 568.577 346.658 569.12 345.618C569.664 344.578 570.443 343.68 571.396 342.995C571.683 342.799 572.014 342.679 572.36 342.648C572.705 342.616 573.053 342.673 573.371 342.813L571.019 341.592C570.7 341.43 570.342 341.359 569.984 341.387C569.627 341.414 569.284 341.539 568.993 341.748C568.036 342.43 567.253 343.327 566.707 344.367C566.161 345.408 565.867 346.562 565.849 347.736V366.547C565.799 367.021 565.871 367.5 566.057 367.939C566.243 368.378 566.538 368.762 566.914 369.055L569.37 370.354C568.963 370.066 568.644 369.67 568.449 369.211C568.254 368.753 568.19 368.249 568.265 367.756Z" fill="#455A64"/>
<path d="M533.19 219.073L368.047 123.693C367.358 123.296 366.577 123.087 365.782 123.085C364.987 123.084 364.205 123.29 363.514 123.684C362.824 124.078 362.248 124.646 361.844 125.331C361.441 126.016 361.223 126.795 361.214 127.59V488.027C361.214 500.057 369.749 514.828 380.168 520.842L541.257 613.897C542.021 614.337 542.887 614.568 543.768 614.567C544.65 614.566 545.516 614.334 546.279 613.893C547.042 613.452 547.676 612.819 548.117 612.056C548.558 611.292 548.791 610.427 548.792 609.545V246.133C548.857 236.208 541.816 224.036 533.19 219.073Z" fill="#A6F2E8"/>
<path opacity="0.9" d="M533.19 219.073L368.047 123.693C367.358 123.296 366.577 123.087 365.782 123.085C364.987 123.084 364.205 123.29 363.514 123.684C362.824 124.078 362.248 124.646 361.844 125.331C361.441 126.016 361.223 126.795 361.214 127.59V488.027C361.214 500.057 369.749 514.828 380.168 520.842L541.257 613.897C542.021 614.337 542.887 614.568 543.768 614.567C544.65 614.566 545.516 614.334 546.279 613.893C547.042 613.452 547.676 612.819 548.117 612.056C548.558 611.292 548.791 610.427 548.792 609.545V246.133C548.857 236.208 541.816 224.036 533.19 219.073Z" fill="white"/>
<path d="M417.439 148.597L419.998 159.366L474.743 190.935L484.2 185.894L417.439 148.597Z" fill="#455A64"/>
<path d="M433.534 159.002C433.534 160.795 432.235 161.51 430.728 160.626C429.919 160.089 429.247 159.37 428.767 158.526C428.286 157.682 428.01 156.737 427.961 155.768C427.961 153.988 429.26 153.26 430.767 154.157C431.576 154.691 432.248 155.408 432.728 156.25C433.209 157.091 433.485 158.034 433.534 159.002Z" fill="#263238"/>
<path d="M470.417 181.802C470.118 181.8 469.823 181.724 469.56 181.581L441.603 165.992C441.208 165.76 440.92 165.383 440.799 164.942C440.679 164.5 440.736 164.029 440.958 163.628C441.18 163.228 441.55 162.931 441.988 162.799C442.427 162.668 442.899 162.714 443.305 162.926L471.275 178.515C471.615 178.704 471.882 179.001 472.035 179.359C472.188 179.716 472.218 180.115 472.12 180.491C472.021 180.867 471.801 181.2 471.493 181.438C471.184 181.675 470.806 181.803 470.417 181.802Z" fill="#263238"/>
<path d="M395.848 198.703C394.146 197.716 392.912 198.573 392.912 200.743C392.912 201.828 393.18 202.896 393.692 203.852C394.204 204.809 394.945 205.624 395.848 206.225C396.332 206.519 396.887 206.674 397.452 206.674C398.018 206.674 398.573 206.519 399.057 206.225L401.772 211.136C400.817 211.663 399.734 211.914 398.644 211.861C397.554 211.808 396.501 211.454 395.601 210.837C393.395 209.487 391.556 207.615 390.247 205.385C388.937 203.156 388.197 200.637 388.092 198.054C388.092 193.234 391.327 191.558 395.783 194.156C398.299 195.777 400.361 198.013 401.772 200.652L399.057 202.808C398.387 201.17 397.276 199.749 395.848 198.703Z" fill="#A6F2E8"/>
<path d="M417.4 214.981C417.4 219.84 414.114 221.476 409.606 218.878C407.337 217.522 405.438 215.627 404.078 213.361C402.719 211.094 401.94 208.527 401.811 205.887C401.811 201.028 405.098 199.392 409.606 201.99C411.88 203.339 413.783 205.233 415.144 207.501C416.504 209.769 417.28 212.339 417.4 214.981ZM406.631 208.784C406.653 209.9 406.941 210.994 407.47 211.976C407.998 212.959 408.752 213.801 409.671 214.435C411.282 215.371 412.581 214.435 412.581 212.227C412.576 211.136 412.31 210.063 411.803 209.098C411.297 208.132 410.565 207.303 409.671 206.68C408.034 205.731 406.631 206.537 406.631 208.784Z" fill="#A6F2E8"/>
<path d="M422.635 209.823L428.247 221.515V213.097L432.495 215.552V231.934L428.598 229.674L423.012 218.086V226.452L418.738 223.984V207.563L422.635 209.823Z" fill="#A6F2E8"/>
<path d="M446.384 223.529V227.816L442.331 225.478V237.585L437.641 234.87V222.763L433.614 220.437V216.163L446.384 223.529Z" fill="#A6F2E8"/>
<path d="M455.529 242.886L450.203 239.807L449.475 241.704L444.668 238.924L450.657 225.998L455.477 228.778L461.245 248.498L456.243 245.614L455.529 242.886ZM454.373 238.339L452.918 232.74L451.424 236.637L454.373 238.339Z" fill="#A6F2E8"/>
<path d="M468.688 240.755C466.986 239.781 465.752 240.625 465.752 242.808C465.755 243.892 466.024 244.96 466.536 245.916C467.048 246.872 467.787 247.687 468.688 248.29C469.175 248.581 469.732 248.734 470.299 248.734C470.866 248.734 471.423 248.581 471.91 248.29L474.625 253.201C473.666 253.722 472.582 253.97 471.492 253.917C470.401 253.864 469.346 253.513 468.441 252.902C466.234 251.551 464.394 249.677 463.084 247.445C461.774 245.213 461.035 242.692 460.933 240.106C460.933 235.286 464.18 233.61 468.623 236.209C471.136 237.837 473.2 240.07 474.625 242.704L471.91 244.848C471.226 243.217 470.112 241.803 468.688 240.755Z" fill="#A6F2E8"/>
<path d="M487.435 247.238V251.512L483.382 249.174V261.32L478.692 258.605V246.497L474.665 244.172V239.898L487.435 247.238Z" fill="#A6F2E8"/>
<path d="M501.297 267.348C502.453 268.011 503.336 267.491 503.336 265.867V256.423L508.039 259.125V268.569C508.039 272.921 505.441 274.22 501.284 271.843C499.281 270.731 497.598 269.123 496.394 267.174C495.191 265.224 494.508 262.998 494.412 260.71V251.265L499.114 253.98V263.425C499.133 264.207 499.341 264.973 499.721 265.656C500.101 266.34 500.642 266.92 501.297 267.348Z" fill="#A6F2E8"/>
<path d="M515.613 267.4C515.08 267.101 514.742 267.088 514.742 267.582C514.742 269.634 522.082 272.596 522.082 278.533C522.082 282.171 519.315 282.184 516.119 280.339C513.31 278.618 510.89 276.33 509.013 273.623L510.754 270.557C512.182 272.768 514.016 274.69 516.158 276.221C516.847 276.624 517.288 276.624 517.288 276.039C517.288 273.908 509.936 271.076 509.936 265.321C509.936 262.048 512.326 261.424 516.015 263.503C518.392 264.94 520.484 266.803 522.186 268.998L520.484 272.142C519.079 270.351 517.44 268.757 515.613 267.4Z" fill="#A6F2E8"/>
<path d="M372.217 279.43C377.488 272.956 380.141 264.741 379.654 256.407C379.166 248.073 375.572 240.225 369.581 234.41C363.591 228.595 355.639 225.237 347.294 224.998C338.949 224.758 330.817 227.655 324.503 233.116C318.189 238.578 314.151 246.208 313.186 254.5C312.221 262.793 314.399 271.146 319.29 277.911C324.181 284.677 331.431 289.363 339.608 291.046C347.785 292.73 356.295 291.287 363.461 287.004L379.726 294.071L372.217 279.43Z" fill="#A6F2E8"/>
<path opacity="0.4" d="M372.217 279.43C377.488 272.956 380.141 264.741 379.654 256.407C379.166 248.073 375.572 240.225 369.581 234.41C363.591 228.595 355.639 225.237 347.294 224.998C338.949 224.758 330.817 227.655 324.503 233.116C318.189 238.578 314.151 246.208 313.186 254.5C312.221 262.793 314.399 271.146 319.29 277.911C324.181 284.677 331.431 289.363 339.608 291.046C347.785 292.73 356.295 291.287 363.461 287.004L379.726 294.071L372.217 279.43Z" fill="black"/>
<path d="M333.971 256.565C333.971 256.058 333.607 255.773 332.945 255.773C331.408 255.974 329.972 256.651 328.839 257.708L326.995 254.123C328.936 252.662 331.282 251.836 333.711 251.758C336.829 251.758 339.193 253.395 339.193 255.838C339.193 257.578 337.894 259.254 336.231 260.93L333.906 263.23H339.401V267.049H327.592V263.918L332.854 258.475C333.42 257.974 333.812 257.305 333.971 256.565Z" fill="white"/>
<path d="M349.015 251.979L345.429 260.579H346.897V257.682H351.418V260.579H353.133V264.126H351.418V267.049H346.897V264.126H340.467V260.904L344.364 251.979H349.015Z" fill="white"/>
<path d="M367.085 259.553V267.049H362.252V260.943C362.28 260.745 362.265 260.542 362.208 260.35C362.151 260.157 362.053 259.979 361.921 259.828C361.789 259.676 361.627 259.555 361.444 259.472C361.261 259.388 361.063 259.345 360.862 259.345C359.914 259.345 359.316 260.086 359.316 261.229V267.049H354.483V251.122H359.316V256.981C359.694 256.384 360.221 255.894 360.845 255.562C361.469 255.229 362.169 255.065 362.876 255.084C363.455 255.069 364.031 255.177 364.566 255.4C365.1 255.623 365.582 255.956 365.979 256.378C366.377 256.799 366.681 257.3 366.871 257.848C367.061 258.395 367.134 258.976 367.085 259.553Z" fill="white"/>
<path d="M524.668 380.266V541.68C524.671 543.506 524.192 545.3 523.281 546.882C522.37 548.464 521.058 549.778 519.478 550.692C517.898 551.606 516.104 552.087 514.279 552.088C512.453 552.089 510.66 551.609 509.079 550.696L422.142 500.498L406.735 491.612C401.43 488.545 397.022 484.138 393.954 478.833C390.885 473.528 389.263 467.511 389.249 461.382V299.955C389.246 298.13 389.725 296.336 390.636 294.754C391.547 293.171 392.858 291.857 394.439 290.943C396.019 290.029 397.812 289.548 399.638 289.547C401.464 289.546 403.257 290.027 404.838 290.94L507.208 350.036C512.516 353.099 516.923 357.505 519.988 362.812C523.053 368.118 524.667 374.138 524.668 380.266Z" fill="#A6F2E8"/>
<path opacity="0.5" d="M524.668 380.266V541.68C524.671 543.506 524.192 545.3 523.281 546.882C522.37 548.464 521.058 549.778 519.478 550.692C517.898 551.606 516.104 552.087 514.279 552.088C512.453 552.089 510.66 551.609 509.079 550.696L422.142 500.498L406.735 491.612C401.43 488.545 397.022 484.138 393.954 478.833C390.885 473.528 389.263 467.511 389.249 461.382V299.955C389.246 298.13 389.725 296.336 390.636 294.754C391.547 293.171 392.858 291.857 394.439 290.943C396.019 290.029 397.812 289.548 399.638 289.547C401.464 289.546 403.257 290.027 404.838 290.94L507.208 350.036C512.516 353.099 516.923 357.505 519.988 362.812C523.053 368.118 524.667 374.138 524.668 380.266Z" fill="white"/>
<path d="M474.587 475.776C474.587 475.776 490.865 502.772 479.108 533.21L422.104 500.498L474.587 475.776Z" fill="#263238"/>
<path d="M500.546 354.488C501.778 344.483 494.666 335.374 484.661 334.142C474.656 332.91 465.547 340.022 464.315 350.027C463.083 360.032 470.195 369.141 480.2 370.373C490.205 371.605 499.314 364.493 500.546 354.488Z" fill="#263238"/>
<path d="M482.525 301.06C482.525 301.06 488.124 291.966 489.839 292.628C491.554 293.291 488.722 301.956 488.722 301.956C488.722 301.956 497.192 303.723 495.62 305.853C494.048 307.984 483.694 307.477 483.694 307.477L482.525 301.06Z" fill="#263238"/>
<path d="M486.421 324.496C482.524 353.778 457.841 353.778 457.841 353.778L406.137 331.017C406.137 331.017 402.239 327.601 401.044 319.754C400.586 316.54 400.586 313.277 401.044 310.063C401.044 310.063 401.044 309.998 401.044 309.972C402.694 297.656 411.905 284.418 431.963 280.352C436.358 279.465 440.833 279.029 445.318 279.053C447.487 279.045 449.655 279.154 451.813 279.378C467.402 280.911 478.328 288.186 483.537 299.501C484.709 302.055 485.581 304.736 486.136 307.49C487.193 313.102 487.29 318.852 486.421 324.496Z" fill="#263238"/>
<path d="M362.292 381.136C362.292 381.136 343.936 380.5 336.869 398.389C336.869 398.389 344.663 403.65 354.887 398.389C365.111 393.127 362.292 381.136 362.292 381.136Z" fill="#A6F2E8"/>
<path opacity="0.5" d="M362.292 381.136C362.292 381.136 343.936 380.5 336.869 398.389C336.869 398.389 344.663 403.65 354.887 398.389C365.111 393.127 362.292 381.136 362.292 381.136Z" fill="black"/>
<path d="M361.773 389.75C361.773 389.75 356.576 367.171 353.835 366.898C351.094 366.626 350.561 373.784 350.782 377.824L344.287 363.846C344.081 363.411 343.788 363.024 343.426 362.707C343.065 362.39 342.642 362.15 342.184 362.003C341.727 361.856 341.244 361.804 340.765 361.85C340.287 361.897 339.823 362.041 339.402 362.274C332.907 365.846 321.513 376.707 345.534 403.559L361.773 389.75Z" fill="#945959"/>
<path d="M428.286 374.134L424.389 373.628C420.461 373.107 416.466 373.641 412.813 375.175C409.16 376.71 405.981 379.189 403.603 382.358L380.414 413.224L362.227 381.137C362.227 381.137 360.044 402.962 336.803 398.389L361.759 440.389C363.338 443.048 365.537 445.286 368.167 446.913C370.797 448.539 373.781 449.507 376.865 449.733C379.95 449.958 383.043 449.436 385.882 448.209C388.721 446.983 391.222 445.089 393.171 442.688L414.529 416.433L428.286 374.134Z" fill="#A6F2E8"/>
<path d="M477.782 446.17C472.586 459.343 472.014 461.915 475.184 468.502C477.392 473.366 479.132 478.429 480.38 483.623C480.38 483.623 456.295 510.619 422.012 500.512L406.604 491.626C403.4 489.778 400.514 487.427 398.056 484.663L402.746 449.691C402.982 447.85 402.795 445.979 402.2 444.221L397.277 429.788C394.874 422.739 394.517 415.153 396.245 407.909C397.974 400.665 401.719 394.058 407.046 388.853L423.597 372.68L467.065 378.24L473.56 380.097C477.813 381.327 481.478 384.05 483.884 387.766C486.29 391.482 487.274 395.941 486.655 400.325C484.525 415.654 481.043 437.895 477.782 446.17Z" fill="#A6F2E8"/>
<path opacity="0.5" d="M477.782 446.17C472.586 459.343 472.014 461.915 475.184 468.502C477.392 473.366 479.132 478.429 480.38 483.623C480.38 483.623 456.295 510.619 422.012 500.512L406.604 491.626C403.4 489.778 400.514 487.427 398.056 484.663L402.746 449.691C402.982 447.85 402.795 445.979 402.2 444.221L397.277 429.788C394.874 422.739 394.517 415.153 396.245 407.909C397.974 400.665 401.719 394.058 407.046 388.853L423.597 372.68L467.065 378.24L473.56 380.097C477.813 381.327 481.478 384.05 483.884 387.766C486.29 391.482 487.274 395.941 486.655 400.325C484.525 415.654 481.043 437.895 477.782 446.17Z" fill="black"/>
<path d="M451.567 406.82L442.863 399.402C441.941 398.613 440.829 398.079 439.638 397.851C438.446 397.623 437.216 397.71 436.068 398.103L425.546 401.727L424.13 395.829C423.909 394.912 423.504 394.048 422.94 393.291C422.377 392.534 421.666 391.899 420.85 391.425C420.034 390.95 419.13 390.646 418.194 390.53C417.257 390.414 416.307 390.488 415.4 390.75L410.84 392.049L418.557 377.265C421.076 372.45 424.957 368.483 429.716 365.859L432.743 364.196L457.751 365.495C457.751 365.495 467.065 369.392 467.065 378.161L451.567 406.742" fill="#A6F2E8"/>
<path d="M457.854 376.577L432.782 396.115V333.901H457.854V376.577Z" fill="#945959"/>
<path d="M433.171 371.445L425.545 401.779L457.75 376.577L433.171 371.445Z" fill="#945959"/>
<path d="M432.782 366.937C438.357 364.867 443.453 361.685 447.761 357.585C452.069 353.485 455.498 348.552 457.841 343.086V333.901H432.769L432.782 366.937Z" fill="#703838"/>
<path d="M438.186 287.796C428.677 287.796 408.462 293.096 406.124 317.987C403.786 342.878 406.046 362.156 418.881 364.027C431.716 365.898 461.544 356.583 465.545 324.365C469.546 292.148 447.449 287.796 438.186 287.796Z" fill="#945959"/>
<path d="M423.22 328.523V343.19L414.62 340.552L423.22 328.523Z" fill="#703838"/>
<path d="M432.781 334.044C434.432 334.044 435.769 332.706 435.769 331.056C435.769 329.406 434.432 328.068 432.781 328.068C431.131 328.068 429.793 329.406 429.793 331.056C429.793 332.706 431.131 334.044 432.781 334.044Z" fill="#263238"/>
<path d="M416.1 328.977C416.098 329.568 415.92 330.144 415.591 330.634C415.261 331.124 414.793 331.505 414.247 331.729C413.701 331.953 413.1 332.01 412.522 331.893C411.943 331.777 411.412 331.491 410.995 331.073C410.579 330.654 410.295 330.122 410.181 329.543C410.067 328.963 410.127 328.363 410.353 327.818C410.58 327.273 410.963 326.807 411.454 326.479C411.945 326.151 412.522 325.977 413.112 325.977C413.506 325.977 413.896 326.054 414.259 326.205C414.622 326.356 414.952 326.577 415.23 326.856C415.507 327.135 415.727 327.466 415.877 327.83C416.026 328.194 416.102 328.584 416.1 328.977Z" fill="#263238"/>
<path d="M409.463 322.742L415.309 319.273C415.309 319.273 413.074 316.948 410.84 318.338C408.606 319.728 409.463 322.742 409.463 322.742Z" fill="#263238"/>
<path d="M419.18 349.139C422.027 349.347 424.861 348.587 427.222 346.983C427.222 346.983 427.78 351.231 424.221 352.036C420.661 352.842 419.18 349.139 419.18 349.139Z" fill="#703838"/>
<path d="M414.075 296.266C414.075 296.266 417.647 330.627 464.376 331.706C464.376 331.706 478.497 297.552 450.593 286.458C422.688 275.363 414.075 296.266 414.075 296.266Z" fill="#263238"/>
<path d="M478.133 326.561L472.391 323.236C470.208 321.937 467.194 322.119 463.856 324.041C457.23 327.861 451.852 337.175 451.852 344.827C451.852 348.659 453.151 351.322 455.386 352.622L461.024 355.869L461.349 356.051L461.543 356.168C463.674 357.207 466.519 356.961 469.65 355.155C476.275 351.257 481.654 342.021 481.654 334.369C481.615 330.498 480.276 327.822 478.133 326.561Z" fill="#A6F2E8"/>
<path d="M478.088 346.129C482.773 338.014 482.773 329.243 478.088 326.538C473.403 323.833 465.807 328.218 461.122 336.333C456.437 344.448 456.437 353.219 461.122 355.924C465.807 358.629 473.403 354.243 478.088 346.129Z" fill="#A6F2E8"/>
<path opacity="0.5" d="M478.088 346.129C482.773 338.014 482.773 329.243 478.088 326.538C473.403 323.833 465.807 328.218 461.122 336.333C456.437 344.448 456.437 353.219 461.122 355.924C465.807 358.629 473.403 354.243 478.088 346.129Z" fill="black"/>
<path d="M480.433 333.771L476.536 331.498C475.055 330.614 472.989 330.731 470.703 332.043C468.314 333.604 466.326 335.705 464.9 338.176C463.474 340.647 462.649 343.419 462.492 346.268C462.492 348.867 463.415 350.724 464.909 351.582L468.806 353.803C468.875 353.854 468.949 353.897 469.027 353.933L469.157 354.011C470.07 354.358 471.055 354.475 472.024 354.353C472.993 354.23 473.918 353.872 474.717 353.31C477.104 351.75 479.09 349.651 480.516 347.182C481.943 344.714 482.768 341.944 482.927 339.097C482.823 336.46 481.914 334.628 480.433 333.771Z" fill="#A6F2E8"/>
<path d="M482.822 339.072C482.663 341.918 481.837 344.688 480.411 347.157C478.985 349.625 476.998 351.724 474.612 353.284C470.065 355.882 466.388 353.778 466.388 348.542C466.542 345.693 467.368 342.92 468.797 340.451C470.226 337.981 472.218 335.884 474.612 334.33C479.145 331.706 482.822 333.823 482.822 339.072Z" fill="#A6F2E8"/>
<path opacity="0.3" d="M482.822 339.072C482.663 341.918 481.837 344.688 480.411 347.157C478.985 349.625 476.998 351.724 474.612 353.284C470.065 355.882 466.388 353.778 466.388 348.542C466.542 345.693 467.368 342.92 468.797 340.451C470.226 337.981 472.218 335.884 474.612 334.33C479.145 331.706 482.822 333.823 482.822 339.072Z" fill="black"/>
<path d="M460.297 281.093C456.573 278.216 452.012 276.633 447.306 276.585H446.15C441.385 276.533 436.627 276.969 431.951 277.884C432.808 277.884 433.666 277.884 434.549 277.884H431.951V280.3H434.367C442.695 280.583 450.586 284.094 456.373 290.089C462.159 296.084 465.388 304.095 465.377 312.427V322.651C465.376 323.055 465.461 323.455 465.625 323.824C465.789 324.194 466.029 324.524 466.329 324.795C466.629 325.066 466.983 325.27 467.367 325.396C467.751 325.521 468.158 325.564 468.559 325.522H468.858L471.457 324.717C471.283 324.771 471.105 324.806 470.924 324.82C471.698 324.715 472.407 324.329 472.915 323.735C473.423 323.14 473.695 322.38 473.678 321.599V312.115C473.652 294.954 466.234 285.73 460.297 281.093Z" fill="#A6F2E8"/>
<path d="M443.941 363.313C442.87 363.313 441.811 363.083 440.837 362.637L432.717 358.883C432.59 358.838 432.474 358.766 432.376 358.674C432.278 358.581 432.2 358.469 432.148 358.345C432.095 358.221 432.069 358.087 432.071 357.952C432.073 357.817 432.103 357.684 432.159 357.561C432.215 357.439 432.295 357.329 432.396 357.239C432.497 357.149 432.615 357.081 432.743 357.039C432.871 356.997 433.007 356.983 433.141 356.996C433.275 357.009 433.405 357.05 433.523 357.116L441.642 360.871C442.678 361.352 443.838 361.498 444.96 361.289C446.083 361.079 447.112 360.524 447.904 359.701L455.698 351.647C455.881 351.465 456.129 351.362 456.387 351.362C456.645 351.362 456.893 351.465 457.075 351.647C457.255 351.831 457.355 352.078 457.355 352.336C457.355 352.593 457.255 352.84 457.075 353.024L449.281 361.079C448.587 361.791 447.756 362.356 446.839 362.74C445.921 363.124 444.936 363.319 443.941 363.313Z" fill="#A6F2E8"/>
<path opacity="0.5" d="M443.941 363.313C442.87 363.313 441.811 363.083 440.837 362.637L432.717 358.883C432.59 358.838 432.474 358.766 432.376 358.674C432.278 358.581 432.2 358.469 432.148 358.345C432.095 358.221 432.069 358.087 432.071 357.952C432.073 357.817 432.103 357.684 432.159 357.561C432.215 357.439 432.295 357.329 432.396 357.239C432.497 357.149 432.615 357.081 432.743 357.039C432.871 356.997 433.007 356.983 433.141 356.996C433.275 357.009 433.405 357.05 433.523 357.116L441.642 360.871C442.678 361.352 443.838 361.498 444.96 361.289C446.083 361.079 447.112 360.524 447.904 359.701L455.698 351.647C455.881 351.465 456.129 351.362 456.387 351.362C456.645 351.362 456.893 351.465 457.075 351.647C457.255 351.831 457.355 352.078 457.355 352.336C457.355 352.593 457.255 352.84 457.075 353.024L449.281 361.079C448.587 361.791 447.756 362.356 446.839 362.74C445.921 363.124 444.936 363.319 443.941 363.313Z" fill="black"/>
<path d="M434.848 356.155C434.848 356.905 434.626 357.639 434.209 358.262C433.792 358.886 433.199 359.372 432.506 359.66C431.813 359.947 431.05 360.022 430.315 359.875C429.579 359.729 428.903 359.368 428.372 358.837C427.842 358.307 427.48 357.631 427.334 356.895C427.188 356.159 427.263 355.396 427.55 354.703C427.837 354.01 428.323 353.418 428.947 353.001C429.571 352.584 430.304 352.362 431.055 352.362C432.061 352.362 433.026 352.761 433.737 353.473C434.448 354.184 434.848 355.149 434.848 356.155Z" fill="#A6F2E8"/>
<path opacity="0.5" d="M434.848 356.155C434.848 356.905 434.626 357.639 434.209 358.262C433.792 358.886 433.199 359.372 432.506 359.66C431.813 359.947 431.05 360.022 430.315 359.875C429.579 359.729 428.903 359.368 428.372 358.837C427.842 358.307 427.48 357.631 427.334 356.895C427.188 356.159 427.263 355.396 427.55 354.703C427.837 354.01 428.323 353.418 428.947 353.001C429.571 352.584 430.304 352.362 431.055 352.362C432.061 352.362 433.026 352.761 433.737 353.473C434.448 354.184 434.848 355.149 434.848 356.155Z" fill="black"/>
<path d="M473.651 312.115V321.599C473.667 322.38 473.396 323.141 472.888 323.735C472.38 324.329 471.671 324.715 470.897 324.82C470.469 324.866 470.036 324.821 469.627 324.688C469.217 324.556 468.84 324.338 468.52 324.05C468.201 323.762 467.945 323.41 467.77 323.017C467.595 322.624 467.505 322.198 467.506 321.768V312.115C467.513 307.509 466.589 302.948 464.787 298.708C462.986 294.468 460.346 290.636 457.026 287.443C453.705 284.25 449.773 281.762 445.466 280.128C441.159 278.494 436.565 277.748 431.962 277.936C436.639 277.021 441.397 276.585 446.162 276.637H447.292C451.997 276.685 456.559 278.268 460.283 281.145C466.233 285.73 473.651 294.954 473.651 312.115Z" fill="#A6F2E8"/>
<path opacity="0.5" d="M473.651 312.115V321.599C473.667 322.38 473.396 323.141 472.888 323.735C472.38 324.329 471.671 324.715 470.897 324.82C470.469 324.866 470.036 324.821 469.627 324.688C469.217 324.556 468.84 324.338 468.52 324.05C468.201 323.762 467.945 323.41 467.77 323.017C467.595 322.624 467.505 322.198 467.506 321.768V312.115C467.513 307.509 466.589 302.948 464.787 298.708C462.986 294.468 460.346 290.636 457.026 287.443C453.705 284.25 449.773 281.762 445.466 280.128C441.159 278.494 436.565 277.748 431.962 277.936C436.639 277.021 441.397 276.585 446.162 276.637H447.292C451.997 276.685 456.559 278.268 460.283 281.145C466.233 285.73 473.651 294.954 473.651 312.115Z" fill="black"/>
<path d="M459.051 490.833C459.051 490.833 452.763 508.15 475.237 515.945C475.237 515.945 482.577 505.162 475.237 496.341C467.898 487.52 459.051 490.833 459.051 490.833Z" fill="#A6F2E8"/>
<path opacity="0.7" d="M459.051 490.833C459.051 490.833 452.763 508.15 475.237 515.945C475.237 515.945 482.577 505.162 475.237 496.341C467.898 487.52 459.051 490.833 459.051 490.833Z" fill="black"/>
<path d="M466.935 491.626C466.935 491.626 444.98 499.667 445.097 502.785C445.214 505.903 454.425 503.772 454.425 503.772L451.06 505.981C447.517 508.293 444.773 511.64 443.201 515.568C442.858 516.434 442.846 517.397 443.167 518.271C443.488 519.145 444.12 519.871 444.941 520.31L453.282 524.727C453.753 524.977 454.269 525.13 454.8 525.177C455.331 525.223 455.866 525.163 456.374 525C456.881 524.836 457.351 524.573 457.755 524.225C458.158 523.877 458.488 523.451 458.725 522.973C459.19 522.055 459.832 521.237 460.615 520.568C461.398 519.899 462.305 519.392 463.285 519.076C467.819 517.569 476.276 513.23 479.666 501.356L466.935 491.626Z" fill="#945959"/>
<path d="M473.521 380.071C473.521 380.071 461.829 386.567 468.039 406.287C474.249 426.008 485.902 456.602 485.902 456.602L459.049 490.833C461.918 491.179 464.682 492.126 467.16 493.613C469.638 495.099 471.774 497.091 473.43 499.459C475.017 501.867 476.008 504.618 476.322 507.484C476.636 510.351 476.264 513.251 475.236 515.945L508.571 473.074C511.654 469.113 513.701 464.445 514.526 459.493C515.352 454.542 514.931 449.463 513.3 444.715L499.01 402.988C497.263 397.89 494.36 393.267 490.529 389.478C486.698 385.69 482.041 382.839 476.925 381.15L473.521 380.071Z" fill="#A6F2E8"/>
<path d="M276.161 263.581L224.496 233.701C223.901 233.289 223.213 233.032 222.494 232.952C221.775 232.873 221.048 232.974 220.377 233.246C220.236 233.312 220.101 233.39 219.975 233.48L208.737 240.067H208.815C207.399 240.872 206.503 242.743 206.503 245.419V302.892C206.503 307.75 209.452 313.401 213.102 315.506L264.768 345.385C265.423 345.859 266.204 346.131 267.012 346.165C267.82 346.2 268.621 345.997 269.315 345.58C269.28 345.594 269.248 345.616 269.224 345.645L280.383 339.15C281.838 338.37 282.76 336.473 282.76 333.758V276.195C282.76 271.336 279.863 265.685 276.161 263.581Z" fill="#A6F2E8"/>
<path d="M280.916 269.024C279.87 266.801 278.223 264.915 276.161 263.581L224.495 233.701C223.901 233.289 223.213 233.032 222.494 232.952C221.775 232.873 221.047 232.974 220.377 233.246C220.236 233.312 220.101 233.39 219.975 233.48L208.737 240.067C209.425 239.715 210.195 239.56 210.965 239.617C211.735 239.674 212.474 239.942 213.102 240.392L264.768 270.271C266.9 271.665 268.59 273.639 269.639 275.961L280.916 269.024Z" fill="#A6F2E8"/>
<path d="M271.367 340.332C271.367 342.93 270.536 344.736 269.224 345.528L280.383 339.033C281.838 338.253 282.76 336.356 282.76 333.641V276.195C282.705 273.694 282.074 271.24 280.916 269.024L269.639 275.961C270.722 278.112 271.312 280.478 271.367 282.885V340.332Z" fill="#A6F2E8"/>
<path opacity="0.3" d="M280.916 269.024C279.87 266.801 278.223 264.915 276.161 263.581L224.495 233.701C223.901 233.289 223.213 233.032 222.494 232.952C221.775 232.873 221.047 232.974 220.377 233.246C220.236 233.312 220.101 233.39 219.975 233.48L208.737 240.067C209.425 239.715 210.195 239.56 210.965 239.617C211.735 239.674 212.474 239.942 213.102 240.392L264.768 270.271C266.9 271.665 268.59 273.639 269.639 275.961L280.916 269.024Z" fill="black"/>
<path opacity="0.6" d="M271.367 340.332C271.367 342.93 270.536 344.736 269.224 345.528L280.383 339.033C281.838 338.253 282.76 336.356 282.76 333.641V276.195C282.705 273.694 282.074 271.24 280.916 269.024L269.639 275.961C270.722 278.112 271.312 280.478 271.367 282.885V340.332Z" fill="black"/>
<path d="M256.22 299.345C256.22 306.789 253.271 309.322 248.854 306.763C247.636 306.069 246.57 305.136 245.722 304.02C244.874 302.904 244.26 301.627 243.918 300.267C242.619 301.865 240.605 301.969 237.773 300.332C233.122 297.643 229.459 291.239 229.459 285.016C229.459 278.793 233.083 276.65 237.773 279.352C240.153 280.754 242.075 282.817 243.307 285.289V282.833L248.205 285.666V299.124C248.132 299.833 248.254 300.547 248.559 301.191C248.864 301.834 249.339 302.382 249.933 302.775C251.582 303.736 252.596 302.112 252.596 297.293C252.596 288.861 247.191 279.923 239.202 275.312C231.212 270.7 225.821 273.909 225.821 282.587C225.926 287.191 227.195 291.695 229.509 295.677C231.824 299.659 235.109 302.99 239.059 305.36C241.204 306.681 243.639 307.457 246.152 307.62L247.308 312.102C244.382 311.866 241.554 310.935 239.059 309.387C228.666 303.372 221.794 291.265 221.794 280.3C221.794 269.336 228.731 265.36 239.202 271.414C249.322 277.247 256.22 288.926 256.22 299.345ZM243.385 293.096C243.41 291.449 243.008 289.823 242.218 288.378C241.428 286.932 240.277 285.716 238.877 284.847C236.279 283.327 234.421 284.392 234.421 287.926C234.388 289.576 234.78 291.207 235.561 292.661C236.341 294.115 237.484 295.343 238.877 296.227C241.475 297.695 243.385 296.747 243.385 293.096Z" fill="#A6F2E8"/>
<g opacity="0.9">
<path d="M256.22 299.345C256.22 306.789 253.271 309.322 248.854 306.763C247.636 306.069 246.57 305.136 245.722 304.02C244.874 302.904 244.26 301.627 243.918 300.267C242.619 301.865 240.605 301.969 237.773 300.332C233.122 297.643 229.459 291.239 229.459 285.016C229.459 278.793 233.083 276.65 237.773 279.352C240.153 280.754 242.075 282.817 243.307 285.289V282.833L248.205 285.666V299.124C248.132 299.833 248.254 300.547 248.559 301.191C248.864 301.834 249.339 302.382 249.933 302.775C251.582 303.736 252.596 302.112 252.596 297.293C252.596 288.861 247.191 279.923 239.202 275.312C231.212 270.7 225.821 273.909 225.821 282.587C225.926 287.191 227.195 291.695 229.509 295.677C231.824 299.659 235.109 302.99 239.059 305.36C241.204 306.681 243.639 307.457 246.152 307.62L247.308 312.102C244.382 311.866 241.554 310.935 239.059 309.387C228.666 303.372 221.794 291.265 221.794 280.3C221.794 269.336 228.731 265.36 239.202 271.414C249.322 277.247 256.22 288.926 256.22 299.345ZM243.385 293.096C243.41 291.449 243.008 289.823 242.218 288.378C241.428 286.932 240.277 285.716 238.877 284.847C236.279 283.327 234.421 284.392 234.421 287.926C234.388 289.576 234.78 291.207 235.561 292.661C236.341 294.115 237.484 295.343 238.877 296.227C241.475 297.695 243.385 296.747 243.385 293.096Z" fill="white"/>
</g>
<path d="M276.161 365.924L224.496 336.045C223.902 335.63 223.213 335.373 222.493 335.296C221.773 335.218 221.045 335.324 220.377 335.603C220.236 335.668 220.101 335.747 219.975 335.837L208.737 342.423H208.815C207.399 343.229 206.503 345.1 206.503 347.763V405.209C206.503 410.081 209.452 415.719 213.102 417.824L264.768 447.703C265.422 448.18 266.203 448.454 267.012 448.488C267.821 448.523 268.622 448.317 269.315 447.898L269.224 447.976L280.383 441.415C281.838 440.649 282.76 438.817 282.76 436.024V378.526C282.76 373.667 279.863 368.029 276.161 365.924Z" fill="#A6F2E8"/>
<path d="M280.916 371.368C279.874 369.142 278.226 367.256 276.161 365.924L224.495 336.045C223.902 335.63 223.213 335.373 222.493 335.296C221.773 335.218 221.045 335.324 220.377 335.603C220.236 335.668 220.101 335.747 219.975 335.837L208.737 342.423C209.423 342.069 210.194 341.91 210.964 341.965C211.734 342.02 212.474 342.287 213.102 342.735L264.768 372.615C266.904 374.011 268.594 375.99 269.639 378.318L280.916 371.368Z" fill="#A6F2E8"/>
<path d="M271.367 442.662C271.367 445.26 270.536 447.066 269.224 447.924L280.383 441.363C281.838 440.597 282.76 438.765 282.76 435.972V378.525C282.705 376.029 282.074 373.579 280.916 371.367L269.639 378.304C270.722 380.451 271.312 382.812 271.367 385.216V442.662Z" fill="#A6F2E8"/>
<path opacity="0.3" d="M280.916 371.368C279.874 369.142 278.226 367.256 276.161 365.924L224.495 336.045C223.902 335.63 223.213 335.373 222.493 335.296C221.773 335.218 221.045 335.324 220.377 335.603C220.236 335.668 220.101 335.747 219.975 335.837L208.737 342.423C209.423 342.069 210.194 341.91 210.964 341.965C211.734 342.02 212.474 342.287 213.102 342.735L264.768 372.615C266.904 374.011 268.594 375.99 269.639 378.318L280.916 371.368Z" fill="black"/>
<path opacity="0.6" d="M271.367 442.662C271.367 445.26 270.536 447.066 269.224 447.924L280.383 441.363C281.838 440.597 282.76 438.765 282.76 435.972V378.525C282.705 376.029 282.074 373.579 280.916 371.367L269.639 378.304C270.722 380.451 271.312 382.812 271.367 385.216V442.662Z" fill="black"/>
<path d="M233.161 391.607L220.703 371.367V398.791L233.161 391.607Z" fill="#A6F2E8"/>
<path d="M244.736 397.44L257.169 418.967V391.581L244.736 397.44Z" fill="#A6F2E8"/>
<path d="M222.586 370.445L235.382 391.23C235.436 391.276 235.484 391.328 235.525 391.386C235.536 391.438 235.536 391.491 235.525 391.542L239.331 397.726L242.553 396.206C242.603 396.152 242.66 396.104 242.722 396.063C242.849 395.989 242.991 395.945 243.138 395.933L256.129 389.84L222.586 370.445Z" fill="#A6F2E8"/>
<path d="M242.853 398.324L239.371 399.961C239.237 400.023 239.09 400.054 238.942 400.052C238.763 400.054 238.586 400.009 238.429 399.923C238.272 399.836 238.14 399.711 238.046 399.558L234.24 393.374L221.742 400.597L255.376 420.006L242.853 398.324Z" fill="#A6F2E8"/>
<g opacity="0.9">
<path d="M233.161 391.607L220.703 371.367V398.791L233.161 391.607Z" fill="white"/>
<path d="M244.736 397.441L257.169 418.967V391.582L244.736 397.441Z" fill="white"/>
<path d="M222.586 370.445L235.382 391.23C235.436 391.276 235.484 391.328 235.525 391.386C235.536 391.438 235.536 391.491 235.525 391.542L239.331 397.726L242.553 396.206C242.603 396.152 242.66 396.104 242.722 396.063C242.849 395.989 242.991 395.945 243.138 395.933L256.129 389.84L222.586 370.445Z" fill="white"/>
<path d="M242.853 398.324L239.371 399.961C239.237 400.023 239.09 400.054 238.942 400.052C238.763 400.054 238.586 400.009 238.429 399.923C238.272 399.836 238.14 399.711 238.046 399.558L234.24 393.374L221.742 400.597L255.376 420.006L242.853 398.324Z" fill="white"/>
</g>
<path d="M276.161 161.289L224.496 131.409C223.902 130.995 223.213 130.737 222.493 130.66C221.773 130.583 221.045 130.689 220.377 130.968C220.236 131.033 220.101 131.111 219.975 131.202L208.737 137.788H208.815C207.399 138.581 206.503 140.464 206.503 143.127V200.574C206.503 205.433 209.452 211.084 213.102 213.188L264.768 243.068C265.422 243.545 266.203 243.818 267.012 243.853C267.821 243.888 268.622 243.682 269.315 243.263L269.224 243.327L280.383 236.832C281.838 236.065 282.76 234.234 282.76 231.441V173.851C282.76 168.993 279.863 163.342 276.161 161.289Z" fill="#A6F2E8"/>
<path d="M280.916 166.693C279.874 164.464 278.226 162.573 276.161 161.237L224.495 131.409C223.902 130.995 223.213 130.737 222.493 130.66C221.773 130.583 221.045 130.689 220.377 130.968C220.236 131.033 220.101 131.111 219.975 131.202L208.737 137.788C209.423 137.433 210.194 137.275 210.964 137.33C211.734 137.385 212.474 137.651 213.102 138.1L264.768 167.979C266.904 169.375 268.594 171.355 269.639 173.682L280.916 166.693Z" fill="#A6F2E8"/>
<path d="M271.367 237.936C271.367 240.534 270.536 242.34 269.224 243.133L280.383 236.637C281.838 235.871 282.76 234.039 282.76 231.246V173.851C282.705 171.355 282.074 168.905 280.916 166.693L269.639 173.63C270.722 175.777 271.312 178.138 271.367 180.542V237.936Z" fill="#A6F2E8"/>
<path opacity="0.3" d="M280.916 166.693C279.874 164.464 278.226 162.573 276.161 161.237L224.495 131.409C223.902 130.995 223.213 130.737 222.493 130.66C221.773 130.583 221.045 130.689 220.377 130.968C220.236 131.033 220.101 131.111 219.975 131.202L208.737 137.788C209.423 137.433 210.194 137.275 210.964 137.33C211.734 137.385 212.474 137.651 213.102 138.1L264.768 167.979C266.904 169.375 268.594 171.355 269.639 173.682L280.916 166.693Z" fill="black"/>
<path opacity="0.6" d="M271.367 237.936C271.367 240.534 270.536 242.34 269.224 243.133L280.383 236.637C281.838 235.871 282.76 234.039 282.76 231.246V173.851C282.705 171.355 282.074 168.905 280.916 166.693L269.639 173.63C270.722 175.777 271.312 178.138 271.367 180.542V237.936Z" fill="black"/>
<path d="M254.466 213.253C252.479 209.979 250.478 206.758 248.49 203.458C248.175 202.833 247.734 202.28 247.196 201.833C246.657 201.386 246.032 201.054 245.36 200.86C244.398 200.665 243.437 200.444 242.45 200.158C242.098 200.012 241.802 199.757 241.605 199.431C238.353 193.864 235.767 187.934 233.901 181.763C233.862 181.631 233.85 181.492 233.868 181.355C233.886 181.219 233.933 181.088 234.005 180.97C234.616 180.36 235.304 179.801 235.928 179.256C236.552 178.71 236.876 177.45 236.422 175.813C235.46 172.344 234.538 168.876 233.577 165.42C233.391 164.438 232.949 163.523 232.297 162.766C231.645 162.008 230.805 161.436 229.861 161.107C227.766 160.525 225.542 160.606 223.496 161.341C222.703 161.64 222.287 162.354 222.274 163.588C222.612 165.966 222.833 168.317 223.288 170.733C226.492 188.159 234.2 204.181 246.412 218.8C246.731 219.285 247.159 219.688 247.662 219.977C248.165 220.266 248.729 220.432 249.309 220.463C251.331 220.415 253.273 219.667 254.804 218.346C255.96 217.306 255.843 215.462 254.466 213.253Z" fill="#A6F2E8"/>
<path d="M254.31 195.546C254.039 191.81 253.009 188.167 251.284 184.842C249.995 182.244 248.356 179.835 246.412 177.684C245.905 177.112 245.477 176.93 245.217 177.359C244.957 177.788 245.217 178.398 245.71 178.957L246.217 179.541C249.808 183.686 252.071 188.814 252.713 194.26C252.706 194.658 252.745 195.054 252.829 195.442C252.993 195.889 253.255 196.293 253.596 196.625C253.869 196.82 254.181 196.625 254.401 196.625C254.323 196.092 254.336 195.819 254.31 195.546Z" fill="#A6F2E8"/>
<path d="M242.541 184.881C244.172 186.675 245.163 188.959 245.36 191.376C245.445 191.744 245.581 192.098 245.762 192.429C246.555 193.078 246.944 192.857 246.944 192.039C246.667 188.94 245.385 186.016 243.294 183.712C242.8 183.205 242.398 183.049 242.164 183.478C242.08 183.722 242.071 183.987 242.138 184.237C242.205 184.487 242.345 184.711 242.541 184.881Z" fill="#A6F2E8"/>
<g opacity="0.9">
<path d="M254.466 213.253C252.479 209.979 250.478 206.758 248.49 203.458C248.175 202.833 247.734 202.28 247.196 201.833C246.657 201.386 246.032 201.054 245.36 200.86C244.398 200.665 243.437 200.444 242.45 200.158C242.098 200.012 241.802 199.757 241.605 199.431C238.353 193.864 235.767 187.934 233.901 181.763C233.862 181.631 233.85 181.492 233.868 181.355C233.886 181.219 233.933 181.088 234.005 180.97C234.616 180.36 235.304 179.801 235.928 179.256C236.552 178.71 236.876 177.45 236.422 175.813C235.46 172.344 234.538 168.876 233.577 165.42C233.391 164.438 232.949 163.523 232.297 162.766C231.645 162.008 230.805 161.436 229.861 161.107C227.766 160.525 225.542 160.606 223.496 161.341C222.703 161.64 222.287 162.354 222.274 163.588C222.612 165.966 222.833 168.317 223.288 170.733C226.492 188.159 234.2 204.181 246.412 218.8C246.731 219.285 247.159 219.688 247.662 219.977C248.165 220.266 248.729 220.432 249.309 220.463C251.331 220.415 253.273 219.667 254.804 218.346C255.96 217.306 255.843 215.462 254.466 213.253Z" fill="white"/>
<path d="M254.31 195.546C254.039 191.81 253.009 188.167 251.284 184.842C249.995 182.244 248.356 179.835 246.412 177.684C245.905 177.112 245.477 176.93 245.217 177.359C244.957 177.788 245.217 178.398 245.71 178.957L246.217 179.541C249.808 183.686 252.071 188.814 252.713 194.26C252.706 194.658 252.745 195.054 252.829 195.442C252.993 195.889 253.255 196.293 253.596 196.625C253.869 196.82 254.181 196.625 254.401 196.625C254.323 196.092 254.336 195.819 254.31 195.546Z" fill="white"/>
<path d="M242.54 184.881C244.171 186.675 245.163 188.959 245.359 191.376C245.445 191.744 245.58 192.098 245.762 192.429C246.554 193.078 246.944 192.857 246.944 192.039C246.666 188.94 245.384 186.016 243.294 183.712C242.8 183.205 242.397 183.049 242.163 183.478C242.079 183.722 242.07 183.987 242.137 184.237C242.204 184.487 242.345 184.711 242.54 184.881Z" fill="white"/>
</g>
<path d="M541.245 126.837L553.417 133.761V129.448C553.417 129.149 553.417 128.837 553.417 128.539C553.417 128.24 553.417 127.954 553.417 127.668V127.512C553.859 121.809 558.185 119.614 563.459 122.667C565.847 124.135 567.894 126.097 569.461 128.422C570.643 120.627 576.97 117.873 584.622 122.277C593.118 127.188 600.003 139.165 600.003 148.935V158.158C599.991 158.896 600.173 159.624 600.531 160.269C600.889 160.915 601.41 161.454 602.043 161.835L609.214 166.031C610.761 166.948 612.044 168.252 612.937 169.814C613.83 171.376 614.301 173.143 614.306 174.943C614.307 175.689 614.11 176.422 613.737 177.069C613.363 177.715 612.826 178.252 612.18 178.624C611.533 178.997 610.799 179.193 610.053 179.192C609.306 179.191 608.573 178.993 607.928 178.619L541.426 140.179C539.662 139.154 538.197 137.686 537.176 135.919C536.155 134.153 535.614 132.151 535.606 130.11C535.606 129.45 535.779 128.801 536.108 128.229C536.437 127.656 536.911 127.18 537.482 126.849C538.053 126.517 538.701 126.342 539.362 126.339C540.022 126.337 540.671 126.509 541.245 126.837Z" fill="#E6E6E6"/>
<path d="M634.038 125.031L642.885 130.11V126.941C642.885 126.72 642.885 126.499 642.885 126.278C642.885 126.057 642.885 125.849 642.885 125.641V125.564C643.21 121.419 646.353 119.822 650.186 122.043C651.921 123.106 653.409 124.528 654.551 126.213C655.421 120.575 660.02 118.535 665.58 121.744C671.764 125.317 676.766 133.995 676.766 141.127V147.843C676.77 148.37 676.912 148.886 677.176 149.341C677.44 149.797 677.818 150.176 678.273 150.441L683.469 153.494C684.6 154.159 685.537 155.109 686.186 156.249C686.836 157.388 687.175 158.678 687.171 159.99C687.171 160.527 687.03 161.055 686.763 161.521C686.496 161.987 686.112 162.376 685.649 162.649C685.186 162.922 684.66 163.069 684.123 163.077C683.586 163.084 683.056 162.952 682.586 162.692L634.168 134.735C632.885 133.993 631.82 132.927 631.079 131.643C630.338 130.359 629.947 128.903 629.946 127.421C629.945 126.942 630.07 126.47 630.308 126.054C630.547 125.637 630.89 125.291 631.304 125.049C631.719 124.807 632.189 124.678 632.669 124.675C633.148 124.672 633.621 124.794 634.038 125.031Z" fill="#E6E6E6"/>
<defs>
<linearGradient id="paint0_linear_225_454" x1="438.972" y1="0" x2="438.972" y2="573.686" gradientUnits="userSpaceOnUse">
<stop stop-color="#98F9E5"/>
<stop offset="1" stop-color="#FDC5FD"/>
</linearGradient>
</defs>
</svg>
