<svg width="24" height="22" viewBox="0 0 24 22" fill="none" xmlns="http://www.w3.org/2000/svg">
<path d="M5.95215 3.66464C3.91815 3.66464 2.32617 4.1358 2.04517 5.92788C1.95517 6.50172 2.15315 7.06639 2.60816 7.47431C2.83416 7.67689 3.07316 7.91798 3.38916 8.16181C4.18216 8.77506 5.19317 9.46439 6.13917 10.0813C8.74217 11.7771 10.7972 12.8313 12.0142 12.8313C13.2312 12.8313 15.2862 11.7771 17.8892 10.0813C18.8362 9.46439 19.8472 8.77414 20.6392 8.16181C20.9552 7.91798 21.1942 7.67781 21.4202 7.47431C21.8752 7.06639 22.0732 6.50172 21.9832 5.92788C21.7022 4.1358 20.1102 3.66464 18.0762 3.66464H5.95215ZM2.01416 9.30764V14.6646C2.01416 16.6895 3.80516 18.3313 6.01417 18.3313H18.0142C20.2232 18.3313 22.0142 16.6895 22.0142 14.6646V9.30764C21.1942 10.0217 20.2782 10.7587 18.9832 11.5993C16.1472 13.44 13.6002 14.6646 12.0142 14.6646C10.4282 14.6646 7.88118 13.44 5.04517 11.5993C3.74917 10.7587 2.83416 10.0217 2.01416 9.30764Z" fill="#D7DADF"/>
</svg>
