<svg width="21" height="21" viewBox="0 0 21 21" fill="none" xmlns="http://www.w3.org/2000/svg">
<path d="M16.6708 4.70015C16.6708 4.03013 16.1278 3.48913 15.4603 3.48913C14.7928 3.48913 14.2493 4.03013 14.2493 4.70015C14.2493 5.36769 14.7928 5.90869 15.4603 5.90869C16.1278 5.90869 16.6708 5.36769 16.6708 4.70015" fill="url(#paint0_linear_259_140)"/>
<path d="M18.2839 14.1528C18.2391 15.1357 18.0747 15.6697 17.9382 16.0244C17.7549 16.4947 17.5362 16.8309 17.1815 17.1836C16.8308 17.5363 16.4945 17.7545 16.0243 17.9359C15.6696 18.0744 15.1336 18.2392 14.1507 18.2861C13.0881 18.3329 12.7733 18.3429 10.0787 18.3429C7.38671 18.3429 7.06936 18.3329 6.00679 18.2861C5.02394 18.2392 4.49042 18.0744 4.1357 17.9359C3.66296 17.7545 3.32921 17.5363 2.97651 17.1836C2.62131 16.8309 2.40263 16.4947 2.2218 16.0244C2.08528 15.6697 1.91842 15.1357 1.87605 14.1528C1.82427 13.0903 1.81478 12.7705 1.81478 10.0814C1.81478 7.38687 1.82427 7.06952 1.87605 6.00694C1.91842 5.0241 2.08528 4.49057 2.2218 4.13287C2.40263 3.66312 2.62131 3.32884 2.97651 2.97615C3.32921 2.62397 3.66296 2.40526 4.1357 2.22196C4.49042 2.08297 5.02394 1.92056 6.00679 1.87375C7.06936 1.82689 7.38671 1.81494 10.0787 1.81494C12.7733 1.81494 13.0881 1.82689 14.1507 1.87375C15.1336 1.92056 15.6696 2.08297 16.0243 2.22196C16.4945 2.40526 16.8308 2.62397 17.1815 2.97615C17.5362 3.32884 17.7549 3.66312 17.9382 4.13287C18.0747 4.49057 18.2391 5.0241 18.2839 6.00694C18.3332 7.06952 18.3452 7.38687 18.3452 10.0814C18.3452 12.7705 18.3332 13.0903 18.2839 14.1528V14.1528ZM20.0987 5.92426C20.0494 4.85022 19.88 4.11643 19.6285 3.47732C19.3724 2.81426 19.0292 2.25233 18.4672 1.69041C17.9078 1.13099 17.3459 0.787748 16.6828 0.528718C16.0412 0.279626 15.3099 0.108247 14.2354 0.0614322C13.1608 0.00961124 12.8176 0.000157169 10.0787 0.000157169C7.34236 0.000157169 6.99665 0.00961124 5.92212 0.0614322C4.85006 0.108247 4.11926 0.279626 3.47466 0.528718C2.8141 0.787748 2.25218 1.13099 1.69276 1.69041C1.13083 2.25233 0.787589 2.81426 0.529045 3.47732C0.279953 4.11643 0.110591 4.85022 0.0587703 5.92426C0.0119558 6.99879 0 7.34252 0 10.0814C0 12.8178 0.0119558 13.161 0.0587703 14.2355C0.110591 15.3076 0.279953 16.0409 0.529045 16.683C0.787589 17.3436 1.13083 17.908 1.69276 18.4674C2.25218 19.0268 2.8141 19.3726 3.47466 19.6311C4.11926 19.8802 4.85006 20.0496 5.92212 20.0989C6.99665 20.1482 7.34236 20.1602 10.0787 20.1602C12.8176 20.1602 13.1608 20.1482 14.2354 20.0989C15.3099 20.0496 16.0412 19.8802 16.6828 19.6311C17.3459 19.3726 17.9078 19.0268 18.4672 18.4674C19.0292 17.908 19.3724 17.3436 19.6285 16.683C19.88 16.0409 20.0494 15.3076 20.0987 14.2355C20.148 13.161 20.16 12.8178 20.16 10.0814C20.16 7.34252 20.148 6.99879 20.0987 5.92426V5.92426Z" fill="url(#paint1_linear_259_140)"/>
<path d="M10.0787 13.4386C8.22401 13.4386 6.71908 11.9361 6.71908 10.0815C6.71908 8.22383 8.22401 6.71941 10.0787 6.71941C11.9338 6.71941 13.4407 8.22383 13.4407 10.0815C13.4407 11.9361 11.9338 13.4386 10.0787 13.4386V13.4386ZM10.0787 4.90213C7.21973 4.90213 4.9043 7.22253 4.9043 10.0815C4.9043 12.9379 7.21973 15.2559 10.0787 15.2559C12.9376 15.2559 15.2555 12.9379 15.2555 10.0815C15.2555 7.22253 12.9376 4.90213 10.0787 4.90213Z" fill="url(#paint2_linear_259_140)"/>
<defs>
<linearGradient id="paint0_linear_259_140" x1="0.18179" y1="19.9521" x2="18.4808" y2="1.6531" gradientUnits="userSpaceOnUse">
<stop stop-color="#FFD521"/>
<stop offset="0.05" stop-color="#FFD521"/>
<stop offset="0.501119" stop-color="#F50000"/>
<stop offset="0.95" stop-color="#B900B4"/>
<stop offset="0.950079" stop-color="#B900B4"/>
<stop offset="1" stop-color="#B900B4"/>
</linearGradient>
<linearGradient id="paint1_linear_259_140" x1="0.18184" y1="19.9768" x2="18.4959" y2="1.66277" gradientUnits="userSpaceOnUse">
<stop stop-color="#FFD521"/>
<stop offset="0.05" stop-color="#FFD521"/>
<stop offset="0.501119" stop-color="#F50000"/>
<stop offset="0.95" stop-color="#B900B4"/>
<stop offset="0.950079" stop-color="#B900B4"/>
<stop offset="1" stop-color="#B900B4"/>
</linearGradient>
<linearGradient id="paint2_linear_259_140" x1="0.1865" y1="19.9774" x2="18.4961" y2="1.66774" gradientUnits="userSpaceOnUse">
<stop stop-color="#FFD521"/>
<stop offset="0.05" stop-color="#FFD521"/>
<stop offset="0.501119" stop-color="#F50000"/>
<stop offset="0.95" stop-color="#B900B4"/>
<stop offset="0.950079" stop-color="#B900B4"/>
<stop offset="1" stop-color="#B900B4"/>
</linearGradient>
</defs>
</svg>
