<svg width="115" height="44" viewBox="0 0 115 44" fill="none" xmlns="http://www.w3.org/2000/svg">
<circle cx="110.5" cy="30.5" r="4.5" fill="#21C4A4"/>
<path d="M1.8 35V15.308H9.936V35H1.8ZM5.868 13.724C4.38 13.724 3.192 13.328 2.304 12.536C1.416 11.744 0.972 10.76 0.972 9.584C0.972 8.408 1.416 7.424 2.304 6.632C3.192 5.84 4.38 5.444 5.868 5.444C7.356 5.444 8.544 5.816 9.432 6.56C10.32 7.304 10.764 8.264 10.764 9.44C10.764 10.688 10.32 11.72 9.432 12.536C8.544 13.328 7.356 13.724 5.868 13.724ZM27.2222 14.948C28.7342 14.948 30.1022 15.26 31.3262 15.884C32.5502 16.484 33.5102 17.432 34.2062 18.728C34.9262 20.024 35.2862 21.704 35.2862 23.768V35H27.1502V25.172C27.1502 23.948 26.9342 23.084 26.5022 22.58C26.0702 22.052 25.4822 21.788 24.7382 21.788C24.1862 21.788 23.6702 21.92 23.1902 22.184C22.7342 22.424 22.3622 22.832 22.0742 23.408C21.8102 23.984 21.6782 24.764 21.6782 25.748V35H13.5422V15.308H21.2822V21.068L19.7342 19.412C20.5022 17.924 21.5342 16.808 22.8302 16.064C24.1502 15.32 25.6142 14.948 27.2222 14.948ZM46.5235 35.36C44.8435 35.36 43.1875 35.18 41.5555 34.82C39.9235 34.46 38.6035 33.992 37.5955 33.416L39.8275 28.052C40.7635 28.604 41.8435 29.036 43.0675 29.348C44.3155 29.66 45.5275 29.816 46.7035 29.816C47.6875 29.816 48.3475 29.732 48.6835 29.564C49.0435 29.396 49.2235 29.168 49.2235 28.88C49.2235 28.592 49.0195 28.388 48.6115 28.268C48.2035 28.124 47.6635 28.016 46.9915 27.944C46.3195 27.872 45.5755 27.788 44.7595 27.692C43.9675 27.572 43.1635 27.404 42.3475 27.188C41.5315 26.972 40.7875 26.648 40.1155 26.216C39.4435 25.784 38.9035 25.208 38.4955 24.488C38.0875 23.744 37.8835 22.808 37.8835 21.68C37.8835 20.432 38.2555 19.304 38.9995 18.296C39.7675 17.288 40.8955 16.484 42.3835 15.884C43.8955 15.26 45.7555 14.948 47.9635 14.948C49.4035 14.948 50.8435 15.08 52.2835 15.344C53.7235 15.608 54.9595 16.016 55.9915 16.568L53.7595 21.932C52.7515 21.38 51.7555 21.008 50.7715 20.816C49.8115 20.6 48.9115 20.492 48.0715 20.492C47.0395 20.492 46.3315 20.588 45.9475 20.78C45.5875 20.972 45.4075 21.188 45.4075 21.428C45.4075 21.716 45.6115 21.932 46.0195 22.076C46.4275 22.22 46.9675 22.328 47.6395 22.4C48.3115 22.472 49.0435 22.568 49.8355 22.688C50.6515 22.784 51.4555 22.952 52.2475 23.192C53.0635 23.408 53.8075 23.732 54.4795 24.164C55.1515 24.596 55.6915 25.184 56.0995 25.928C56.5075 26.648 56.7115 27.572 56.7115 28.7C56.7115 29.876 56.3395 30.98 55.5955 32.012C54.8515 33.02 53.7235 33.836 52.2115 34.46C50.6995 35.06 48.8035 35.36 46.5235 35.36ZM72.315 35.36C70.611 35.36 69.195 35 68.067 34.28C66.963 33.536 66.147 32.42 65.619 30.932C65.091 29.42 64.827 27.5 64.827 25.172C64.827 22.796 65.067 20.864 65.547 19.376C66.051 17.864 66.855 16.748 67.959 16.028C69.063 15.308 70.515 14.948 72.315 14.948C74.043 14.948 75.627 15.368 77.067 16.208C78.507 17.024 79.659 18.2 80.523 19.736C81.387 21.248 81.819 23.06 81.819 25.172C81.819 27.284 81.387 29.108 80.523 30.644C79.659 32.156 78.507 33.32 77.067 34.136C75.627 34.952 74.043 35.36 72.315 35.36ZM59.175 41.984V15.308H66.915V17.972L66.951 25.172L67.311 32.372V41.984H59.175ZM70.371 29.024C70.971 29.024 71.511 28.88 71.991 28.592C72.471 28.304 72.855 27.872 73.143 27.296C73.431 26.72 73.575 26.012 73.575 25.172C73.575 24.308 73.431 23.588 73.143 23.012C72.855 22.436 72.471 22.004 71.991 21.716C71.511 21.428 70.971 21.284 70.371 21.284C69.771 21.284 69.231 21.428 68.751 21.716C68.271 22.004 67.887 22.436 67.599 23.012C67.311 23.588 67.167 24.308 67.167 25.172C67.167 26.012 67.311 26.72 67.599 27.296C67.887 27.872 68.271 28.304 68.751 28.592C69.231 28.88 69.771 29.024 70.371 29.024Z" fill="#21C4A4"/>
<path d="M89.5625 20.25C85.1875 23.75 84.75 28.5625 88.25 34.6875M97.4375 30.75C101.812 27.25 102.25 22.5317 98.75 16.4067M93.5 15C90.7152 15 88.0445 16.1062 86.0754 18.0754C84.1062 20.0445 83 22.7152 83 25.5C83 28.2848 84.1062 30.9555 86.0754 32.9246C88.0445 34.8938 90.7152 36 93.5 36C96.2848 36 98.9555 34.8938 100.925 32.9246C102.894 30.9555 104 28.2848 104 25.5C104 22.7152 102.894 20.0445 100.925 18.0754C98.9555 16.1062 96.2848 15 93.5 15ZM93.5 18.9375C91.7595 18.9375 90.0903 19.6289 88.8596 20.8596C87.6289 22.0903 86.9375 23.7595 86.9375 25.5C86.9375 27.2405 87.6289 28.9097 88.8596 30.1404C90.0903 31.3711 91.7595 32.0625 93.5 32.0625C95.2405 32.0625 96.9097 31.3711 98.1404 30.1404C99.3711 28.9097 100.062 27.2405 100.062 25.5C100.062 23.7595 99.3711 22.0903 98.1404 20.8596C96.9097 19.6289 95.2405 18.9375 93.5 18.9375Z" stroke="#21C4A4" stroke-linejoin="round"/>
</svg>
