<svg width="24" height="22" viewBox="0 0 24 22" fill="none" xmlns="http://www.w3.org/2000/svg">
<path opacity="0.4" d="M4 11C4 8.97497 5.79086 7.33334 8 7.33334H16C18.2091 7.33334 20 8.97497 20 11V16.5C20 18.5251 18.2091 20.1667 16 20.1667H8C5.79086 20.1667 4 18.5251 4 16.5V11Z" fill="#9CA3AF"/>
<path fill-rule="evenodd" clip-rule="evenodd" d="M12 12.1458C12.4142 12.1458 12.75 12.4536 12.75 12.8333V14.6667C12.75 15.0464 12.4142 15.3542 12 15.3542C11.5858 15.3542 11.25 15.0464 11.25 14.6667V12.8333C11.25 12.4536 11.5858 12.1458 12 12.1458Z" fill="#28303F"/>
<path fill-rule="evenodd" clip-rule="evenodd" d="M8.75 5.50001C8.75 3.85466 10.2051 2.52084 12 2.52084C13.7949 2.52084 15.25 3.85466 15.25 5.50001V7.33334H16C16.2563 7.33334 16.5071 7.35746 16.75 7.40354V5.50001C16.75 3.09527 14.6234 1.14584 12 1.14584C9.37665 1.14584 7.25 3.09527 7.25 5.50001V7.40354C7.49294 7.35746 7.74365 7.33334 8 7.33334H8.75V5.50001Z" fill="#D7DADF"/>
</svg>
